<svg width="240" height="187" viewBox="0 0 240 187" fill="none" xmlns="http://www.w3.org/2000/svg">
            <g clip-path="url(#clip0_2_85)">
            <path d="M40.47 184.52C43.3333 183.803 44.56 182.067 44.56 172.653L44.4567 153.933L28.7033 125.397C24.2033 117.213 21.6467 115.883 19.6 115.167V114.04H32.59V115.167C29.7267 115.883 30.2367 117.213 34.84 125.397L49.6733 151.787L64.6067 125.397C68.0833 119.26 68.8 115.883 65.22 115.167V114.04H76.37V115.167C73.8133 115.883 70.95 117.213 66.3467 125.397L50.39 153.73V172.653C50.39 182.063 51.6167 183.803 54.48 184.52V185.647H40.4667V184.52H40.47Z" fill="white"/>
            <path d="M67.27 160.173C67.27 144.727 79.5433 133.783 93.5567 133.783C106.24 133.783 119.743 141.967 119.743 160.277C119.743 178.587 105.627 186.667 93.5567 186.667C80.8733 186.667 67.27 178.38 67.27 160.173ZM114.733 164.367C114.733 150.967 105.017 135.52 91.31 135.52C79.24 135.52 72.59 144.42 72.59 156.283C72.59 170.297 82.41 184.72 96.1167 184.72C107.983 184.72 114.733 175.82 114.733 164.363V164.367Z" fill="white"/>
            <path d="M125.983 184.52C128.847 183.803 130.073 182.067 130.073 172.653V118.44C130.073 110.053 129.05 109.133 125.983 107.803V106.883L134.677 103.1L135.393 103.713V164.267L154.827 146.06C161.783 139.617 163.213 136.343 160.76 135.013V134.503H171.91V135.63C168.943 136.55 166.283 136.96 159.43 143.403L151.143 151.177L162.803 172.247C166.793 179.51 169.963 184.01 174.363 184.623V185.647H169.25C164.237 185.647 162.5 182.577 157.383 173.373L147.257 154.86L135.39 166.01V172.66C135.39 182.07 136.617 183.81 139.48 184.527V185.653H125.977V184.527L125.983 184.52Z" fill="white"/>
            <path d="M172.527 161.197C172.527 145.343 184.087 133.783 199.53 133.783C211.293 133.783 218.963 141.047 219.477 151.58H178.357C177.947 153.523 177.743 155.57 177.743 157.717C177.743 172.55 187.153 182.163 200.657 182.163C208.943 182.163 214.363 178.38 219.58 172.447L220.397 173.263C214.67 180.423 206.793 186.663 196.87 186.663C185.62 186.663 172.527 178.377 172.527 161.193V161.197ZM213.747 150.353C212.93 145.24 207.713 135.52 195.95 135.52C187.153 135.52 180.81 141.247 178.56 150.353H213.747Z" fill="white"/>
            <path d="M0 101.26C2.55667 100.543 5.01333 99.1133 8.59333 90.3167L29.87 37.74C30.4833 36.2067 30.38 35.08 29.6667 33.65L29.0533 32.32L34.27 30.07L59.1267 90.42C62.7067 99.1133 64.8533 100.547 66.9 101.263V102.39H54.0133V101.263C56.8767 100.547 56.7733 99.1167 53.1933 90.42L46.85 75.0767H16.3667L10.23 90.3167C7.57 96.76 7.57 100.547 11.15 101.26V102.387H0V101.26ZM46.2333 73.64L31.4 37.7367L16.9767 73.64H46.23H46.2333Z" fill="white"/>
            <path d="M61.8 74.34C61.8 61.47 72.03 52.3467 83.7067 52.3467C94.2767 52.3467 105.527 59.1667 105.527 74.4233C105.527 89.68 93.7633 96.4167 83.7067 96.4167C73.1367 96.4167 61.8 89.5133 61.8 74.34ZM101.35 77.8333C101.35 66.6667 93.2533 53.7967 81.83 53.7967C71.7733 53.7967 66.23 61.2133 66.23 71.1C66.23 82.7767 74.4133 94.7967 85.8367 94.7967C95.7233 94.7967 101.35 87.38 101.35 77.8333Z" fill="white"/>
            <path d="M110.813 94.6267C113.2 94.03 114.223 92.58 114.223 84.74V65.1333C114.223 58.1433 113.37 57.3767 110.813 56.2667V55.5L118.06 52.3467L118.657 52.8567V60.1033C124.197 55.9267 130.847 52.3467 136.473 52.3467C143.123 52.3467 147.13 55.2433 148.663 60.7C154.29 56.1833 161.28 52.3467 167.16 52.3467C175.94 52.3467 180.03 57.3767 180.03 66.5833V84.74C180.03 92.5833 181.053 94.03 183.44 94.6267V95.5633H172.19V94.6267C174.577 94.03 175.6 92.58 175.6 84.74V68.1167C175.6 58.8267 171.763 54.5633 164.86 54.5633C159.063 54.5633 153.607 57.9733 148.833 61.6367C149.173 63.17 149.343 64.79 149.343 66.58V84.7367C149.343 92.58 150.367 94.0267 152.753 94.6233V95.56H141.5V94.6233C143.887 94.0267 144.91 92.5767 144.91 84.7367V68.1133C144.91 58.8233 141.073 54.56 134.17 54.56C128.63 54.56 123.26 57.8 118.657 61.2933V84.7333C118.657 92.5767 119.68 94.0233 122.067 94.62V95.5567H110.813V94.62V94.6267Z" fill="white"/>
            <path d="M225.317 68.5333C226.557 68.15 227.85 67.9433 229.173 67.9433C234.27 68 238.613 72.3367 239.727 77.2233C241.053 83.0433 237.41 90.0733 231.417 95.3433C231.867 96.6067 232.32 97.87 232.633 99.2433C233.233 101.877 233.297 104.293 232.983 106.49C232.983 106.497 232.953 106.593 232.957 106.6C231.557 115.88 222.807 121.153 214.477 121.153C207.173 121.153 201.727 116.487 200.56 111.38C199.76 107.867 201.233 105.067 203.82 104.79L203.843 104.9C201.363 105.173 199.89 107.973 200.667 111.38C201.793 116.32 207.2 121.043 214.5 121.043C221.8 121.043 228.887 116.027 229.61 106.637L229.627 106.493C229.76 104.243 229.617 101.717 228.977 98.9167C228.877 98.4767 228.763 97.9833 228.61 97.5433C226.007 99.41 223.093 100.903 220.073 101.893L219.927 101.937C217.41 102.76 214.763 103.253 212.113 103.253C202.647 103.253 197.28 97.2667 196.473 90.8967C195.043 79.64 204.74 73.0533 216.273 67.1767L218.51 66.0767C217.033 54.38 221.85 48.23 228.343 48.23C232.077 48.23 234.257 50.2067 234.933 53.1733C236.273 59.0467 227.7 62.0133 218.767 66.24C218.9 67.0633 219.03 67.8867 219.22 68.71C219.447 69.6967 219.657 70.63 219.913 71.51L219.943 71.62C221.203 75.9567 222.917 79.4733 225.237 83.7C227.12 87.2133 229.263 90.4533 230.863 94.1333C235.923 88.0933 238.083 80.02 236.78 74.31C235.84 70.1933 232.943 68.16 229.187 68.05C227.937 68.05 226.643 68.2033 225.467 68.5467L225.303 68.53L225.317 68.5333ZM219.597 71.7333L219.27 70.3067C218.957 68.9333 218.713 67.6167 218.533 66.3533L216.297 67.4533C207.177 72.78 198.473 80.63 201.09 92.11C202.253 97.2167 206.027 102.377 213.927 102.377C215.927 102.377 217.813 102.103 219.593 101.607L219.75 101.563C223.05 100.63 225.957 98.9167 228.377 96.72C226.293 89.4733 221.85 80.4133 219.623 71.8467L219.597 71.7367V71.7333ZM218.717 65.97C228.147 61.0833 234.873 57.13 233.66 51.8033C233.197 49.77 231.737 48.3433 228.547 48.3433C221.35 48.3433 217.257 55.5367 218.717 65.97Z" fill="white"/>
            <path d="M65 12.7533C65 5.16 69.8367 0 75.46 0C80.6533 0 86.35 4.33333 86.35 12.93C86.35 20.5233 81.5133 25.6833 75.89 25.6833C70.6967 25.6833 65 21.35 65 12.7533ZM84.3067 15.08C84.3767 7.66667 80.2933 0.68 74.6 0.68C69.37 0.68 67.1133 5.05 67.0433 10.6033C66.9733 18.0167 71.0567 25.0033 76.93 25.0033C81.98 25.0033 84.2367 20.6333 84.31 15.08H84.3067Z" fill="white"/>
            <path d="M93.1533 16.87C95.1233 12.5 97.88 6.94667 100.533 2.00333L91.9367 1.89667C88.9267 1.86 88.2467 2.72 87.28 5.48L87.0667 5.44333L87.82 0.25H101.86V0.536667C98.2767 6.84 95.3067 14.04 94.4467 17.12C93.4433 20.63 93.3367 23.3167 93.6933 25.3233H90.7933C90.7933 22.9967 91.69 20.0933 93.1567 16.87H93.1533Z" fill="white"/>
            <path d="M103.327 23.9267C103.327 23.03 104.08 22.28 104.94 22.28C105.8 22.28 106.517 23.0333 106.517 23.9267C106.517 24.82 105.8 25.5733 104.94 25.5733C104.08 25.5733 103.327 24.82 103.327 23.9267Z" fill="white"/>
            <path d="M110.707 24.93C111.923 24.68 112.427 24.07 112.427 20.7733V2.72334L109.273 4.05001L109.203 3.80001L114.143 0.0700073H114.43V20.7733C114.43 24.07 114.93 24.6767 116.15 24.93V25.3233H110.707V24.93Z" fill="white"/>
            <path d="M130.8 6.44667C130.8 2.72001 128.22 1.36001 125.857 1.36001C123.887 1.36001 121.737 2.29001 120.27 3.97334L120.02 3.65001C121.667 1.75001 124.067 -0.00332642 127.22 -0.00332642C130.373 -0.00332642 132.95 2.07334 132.987 5.55001C133.023 12.82 124.14 19.7333 120.02 23.4967H128.51C132.057 23.4967 132.81 22.4233 133.453 20.0933L133.81 20.13L133.273 25.3233H117.907V24.8233C122.85 20.06 130.8 13.72 130.8 6.44667Z" fill="white"/>
            <path d="M136.603 23.9267C136.603 23.03 137.357 22.28 138.217 22.28C139.077 22.28 139.793 23.0333 139.793 23.9267C139.793 24.82 139.077 25.5733 138.217 25.5733C137.357 25.5733 136.603 24.82 136.603 23.9267Z" fill="white"/>
            <path d="M154.653 6.44667C154.653 2.72001 152.073 1.36001 149.71 1.36001C147.74 1.36001 145.59 2.29001 144.123 3.97334L143.873 3.65001C145.52 1.75001 147.92 -0.00332642 151.073 -0.00332642C154.227 -0.00332642 156.803 2.07334 156.84 5.55001C156.877 12.82 147.993 19.7333 143.873 23.4967H152.363C155.91 23.4967 156.663 22.4233 157.307 20.0933L157.663 20.13L157.127 25.3233H141.76V24.8233C146.703 20.06 154.653 13.72 154.653 6.44667Z" fill="white"/>
            <path d="M158.487 18.6267L171.99 0H172.49V17.91H174.96L174.997 17.98L174.747 18.4467C174.567 18.8033 174.28 18.9467 173.887 18.9467H172.49V20.7733C172.49 24.07 172.92 24.6767 173.923 24.93V25.3233H169.053V24.93C170.057 24.68 170.487 24.07 170.487 20.7733V18.9833H158.667L158.487 18.6267ZM170.487 17.91V2.9L159.633 17.9067H170.487V17.91Z" fill="white"/>
            </g>
            <defs>
            <clipPath id="clip0_2_85">
            <rect width="240" height="186.667" fill="white"/>
            </clipPath>
            </defs>
        </svg>