<svg width="80" height="59" viewBox="0 0 80 59" fill="none" xmlns="http://www.w3.org/2000/svg">
<g clip-path="url(#clip0_2_111)">
<path d="M76.74 16.6833C66.57 18.67 61.7067 28.1133 57.3467 36.9667C54.6867 42.01 50.6433 47.86 45.8667 47.86C43.2367 47.86 42.3467 45.93 42.5967 43.46C42.74 41.85 43.2533 40.2933 43.8733 38.7367C44.8133 39.81 45.38 41.3133 45.4267 43.1367H45.5867C45.5567 41.2067 44.9433 39.65 43.9533 38.5233C45.8467 34.0167 49.0767 29.5633 49.6367 25.0033C50.0533 21.6233 48.0233 19.8 44.91 19.8C43.8167 19.8 42.72 19.9767 41.6733 20.2967C41.0433 20.4433 40.4733 20.68 39.9433 20.9767C39.9433 20.9767 39.94 20.9767 39.9367 20.9767C39.3033 21.3333 38.7267 21.7767 38.1867 22.27C39.5733 16.8167 41.9 10.8333 44.8133 6.45333L45.1467 5.91666C47.6333 2.31999 50.5533 -0.0400068 53.6367 0.173327L53.71 0.0133266C50.1933 -0.200007 46.7933 2.15999 43.93 5.80999L43.78 5.99999C36.9267 6.63999 32.51 13.1833 28.24 20.25C27.3833 19.7767 26.3367 19.51 25.3767 19.5C21.19 19.42 17.5667 22.9467 19.07 27.2067C19.5633 28.6933 20.72 29.5567 22.08 29.99C18.5067 34.9367 14.6333 38.65 9.85001 38.65C3.62668 38.65 -0.516657 34.3567 0.256676 28.08C0.743343 24.11 3.39668 19.9767 8.07334 17.7233L7.98668 17.5633C3.25001 19.8667 0.590009 24.0533 0.0966761 28.0767C-0.693324 34.5167 3.50001 38.8067 9.83334 38.8067C16.1733 38.8567 20.51 35.1733 24.09 30.33C24.6267 30.3533 25.16 30.33 25.67 30.27C28.4467 29.9733 31.72 28.7767 34.1067 26.9933C34.5267 27.76 34.8633 28.5367 35.08 29.3C34.9533 32.2067 35.42 35.5467 37.9333 36.2133C35.0533 36.29 31.9767 37.63 29.65 40.1267L29.53 40.2333C27.91 42.0567 26.7033 44.4733 26.3867 47.4767C25.6767 53.27 28.9667 58.7967 36.8533 58.7967C45.6 58.7967 51.3933 51.82 55.5533 44.5767C60.61 35.7233 65.5567 19.0367 76.72 16.8367C77.76 16.6767 78.8467 16.57 79.9733 16.57L80 16.3567C78.8733 16.3567 77.7867 16.4633 76.74 16.68V16.6833ZM43.6767 6.12999C40.28 10.6367 37.5767 16.9167 36.08 22.98C36.08 22.98 35.8567 24.0067 35.6567 24.99C35.5433 25.1167 35.4267 25.2433 35.3133 25.37C34.9233 25.78 34.5067 26.1633 34.0633 26.51C32.9433 24.4767 31.4233 22.6567 29.5933 21.2267C31.7 17.48 38.2033 6.70999 43.6767 6.13333V6.12999ZM19.2167 27.1533C18.2533 24.6333 19.32 21.8933 21.71 20.66C23.6333 19.63 26.1367 19.49 28.05 20.5633C27.7167 21.1167 27.3833 21.67 27.0533 22.2267C27.0533 22.2267 24.62 26.3033 23.3767 28.13C23 28.69 22.62 29.2367 22.2367 29.7733C20.9133 29.4167 19.8067 28.6267 19.2167 27.1533ZM32.7667 27.3533C31.69 28.0233 30.5333 28.58 29.3367 29.0133C27.91 29.52 26.07 29.99 24.3233 30.01C24.4767 29.7967 24.6333 29.58 24.7833 29.3633C26.2267 27.2167 27.59 24.8567 28.9 22.4967C28.9 22.4967 29.0867 22.14 29.4233 21.5333C31.06 22.7967 32.7467 24.6533 33.9 26.63C33.54 26.9 33.1667 27.1467 32.77 27.3567L32.7667 27.3533ZM35.0933 28.9767C34.94 28.39 34.7167 27.8167 34.46 27.2667C34.3967 27.1333 34.3233 27.0067 34.2533 26.8767C34.7067 26.53 35.1233 26.16 35.4967 25.77C35.4633 25.9467 35.43 26.1133 35.4067 26.2533C35.2767 26.9933 35.15 27.95 35.09 28.9767H35.0933ZM37.3233 26.4133C37.4767 25.4967 37.87 23.68 38.04 22.91C38.7033 22.2167 39.42 21.5933 40.2867 21.1367C41.14 20.6567 42.09 20.43 43.0333 20.2C43.41 20.1433 43.7633 20.1167 44.0733 20.1167C46.4333 20.1167 48.1467 21.4567 47.7133 25C47.2133 29.0767 44.3033 33.1033 42.45 37.2867C41.55 36.7533 40.6233 36.4333 39.39 36.2933C40.16 36.17 40.82 35.8033 41.49 35.32L41.4033 35.16C40.6933 35.6967 39.89 36.1267 39.03 36.1267C35.7567 36.1267 36.9733 28.4 37.3233 26.4133ZM53.8167 43.8867C50.1767 50.38 44.5 58.59 36.45 58.59C28.99 58.59 25.8467 53.17 26.5467 47.4833C26.91 44.5333 28.1167 42.1167 29.6767 40.3467L29.7967 40.24C32.03 37.7733 35.0867 36.4833 37.89 36.3767L38.84 36.4033C40.12 36.4567 41.3733 36.86 42.3733 37.45C41.64 39.06 41.06 40.7233 40.8533 42.3867C40.4633 45.5533 42.0267 48.1267 45.3533 48.1267C49.6467 48.1267 53.16 44.4233 55.7667 40.24C55.1333 41.4733 54.4967 42.7067 53.8167 43.89V43.8867Z" fill="white"/>
</g>
<defs>
<clipPath id="clip0_2_111">
<rect width="80" height="58.8033" fill="white"/>
</clipPath>
</defs>
</svg>
