<svg width="24" height="24" viewBox="0 0 24 24" fill="none" xmlns="http://www.w3.org/2000/svg">
<g clip-path="url(#clip0_172_57)">
<path d="M21.1751 7.86891H17.5266L17.1934 6.61514C16.9259 5.6158 16.0184 4.91809 14.9849 4.91809H9.01508C7.98164 4.91809 7.07148 5.6158 6.80656 6.61514L6.47344 7.86891H2.82492C1.26689 7.86891 0 9.1358 0 10.6938V21.1778C0 22.7358 1.26689 24.0027 2.82492 24.0027H21.1777C22.7357 24.0027 24.0026 22.7358 24.0026 21.1778V10.6938C24.0026 9.1358 22.7357 7.86891 21.1777 7.86891H21.1751ZM23.6066 21.1778C23.6066 22.5181 22.5154 23.6092 21.1751 23.6092H2.82492C1.48459 23.6092 0.393443 22.5181 0.393443 21.1778V10.6938C0.393443 9.3535 1.48459 8.26235 2.82492 8.26235H6.77508L7.18688 6.71744C7.40721 5.89121 8.16 5.31153 9.01508 5.31153H14.9849C15.84 5.31153 16.5928 5.88858 16.8131 6.71744L17.2249 8.26235H21.1751C22.5154 8.26235 23.6066 9.3535 23.6066 10.6938V21.1778Z" fill="#7B5E49"/>
<path d="M19.5016 5.51605C19.6066 5.58425 19.7272 5.61573 19.8479 5.61573C19.9685 5.61573 20.0892 5.58163 20.1941 5.51343C20.4039 5.37966 20.8079 5.10163 21.1515 4.76064C21.5974 4.31999 21.8229 3.89507 21.8229 3.49376C21.8229 3.21048 21.739 2.94818 21.5764 2.73835C21.259 2.3213 20.7003 2.17704 20.2203 2.38687C20.0866 2.44458 19.9607 2.53114 19.8479 2.63868C19.7351 2.53114 19.6092 2.4472 19.4754 2.3895C18.9954 2.17966 18.4367 2.32392 18.1167 2.74097C17.9567 2.95081 17.8702 3.2131 17.8702 3.49638C17.8702 3.89507 18.0957 4.32261 18.5416 4.76327C18.8852 5.10425 19.2892 5.38228 19.499 5.51605H19.5016ZM18.4315 2.97966C18.5757 2.79081 18.7934 2.68589 19.019 2.68589C19.1187 2.68589 19.221 2.70687 19.318 2.74884C19.457 2.80917 19.5856 2.91409 19.6879 3.0531L19.8452 3.26294L20.0026 3.0531C20.1075 2.91146 20.2334 2.81179 20.3751 2.74884C20.6898 2.61245 21.0544 2.70687 21.2616 2.97966C21.3692 3.1213 21.4269 3.29966 21.4269 3.49638C21.4269 3.78753 21.2407 4.12064 20.8734 4.48261C20.5561 4.79737 20.1757 5.05704 19.979 5.18294C19.8977 5.2354 19.7928 5.2354 19.7115 5.18294C19.5148 5.05704 19.137 4.79737 18.817 4.48261C18.4498 4.11802 18.2636 3.78753 18.2636 3.49638C18.2636 3.29966 18.3213 3.1213 18.4289 2.97966H18.4315Z" fill="#7B5E49"/>
<path d="M5.39803 3.22357C5.50295 3.29177 5.62361 3.32325 5.74426 3.32325C5.86492 3.32325 5.98557 3.28915 6.09049 3.22095C6.30033 3.08456 6.70426 2.80652 7.04787 2.46816C7.49377 2.02751 7.71934 1.60259 7.71934 1.20128C7.71934 0.917999 7.63541 0.655704 7.47279 0.445868C7.15541 0.0288191 6.59672 -0.115443 6.11672 0.0943929C5.98295 0.152098 5.85705 0.238655 5.74426 0.346196C5.63148 0.238655 5.50557 0.154721 5.3718 0.0970158C4.8918 -0.11282 4.33311 0.031442 4.01311 0.448491C3.85311 0.658327 3.76656 0.920622 3.76656 1.2039C3.76656 1.60259 3.99213 2.03013 4.43803 2.47079C4.78164 2.81177 5.18557 3.08718 5.39541 3.22357H5.39803ZM4.32787 0.68718C4.47213 0.498327 4.68984 0.396032 4.91541 0.396032C5.01508 0.396032 5.11738 0.417016 5.21443 0.458983C5.35344 0.519311 5.48197 0.624229 5.58426 0.763245L5.74164 0.973081L5.89902 0.763245C6.00393 0.621606 6.12984 0.521934 6.27148 0.458983C6.58623 0.32259 6.95082 0.417016 7.15803 0.689803C7.26557 0.831442 7.32328 1.0098 7.32328 1.20652C7.32328 1.49767 7.13705 1.83079 6.76984 2.19275C6.45246 2.50751 6.07475 2.76718 5.87541 2.89308C5.7941 2.94554 5.68918 2.94554 5.60787 2.89308C5.41115 2.76718 5.03082 2.50751 4.71344 2.19275C4.34623 1.82816 4.16 1.49767 4.16 1.20652C4.16 1.0098 4.2177 0.831442 4.32525 0.689803L4.32787 0.68718Z" fill="#7B5E49"/>
<path d="M12 9.87805C8.66098 9.87805 5.94361 12.5954 5.94361 15.9344C5.94361 19.2735 8.66098 21.9908 12 21.9908C15.339 21.9908 18.0564 19.2735 18.0564 15.9344C18.0564 12.5954 15.339 9.87805 12 9.87805ZM12 21.5974C8.87869 21.5974 6.33705 19.0558 6.33705 15.9344C6.33705 12.8131 8.87869 10.2715 12 10.2715C15.1213 10.2715 17.663 12.8131 17.663 15.9344C17.663 19.0558 15.1213 21.5974 12 21.5974Z" fill="#7B5E49"/>
<path d="M12 10.8617C9.20131 10.8617 6.92721 13.1384 6.92721 15.9345C6.92721 18.7305 9.20393 21.0073 12 21.0073C14.7961 21.0073 17.0728 18.7305 17.0728 15.9345C17.0728 13.1384 14.7961 10.8617 12 10.8617ZM12 20.6164C9.41902 20.6164 7.32066 18.5181 7.32066 15.9371C7.32066 13.3561 9.41902 11.2578 12 11.2578C14.581 11.2578 16.6793 13.3561 16.6793 15.9371C16.6793 18.5181 14.581 20.6164 12 20.6164Z" fill="#7B5E49"/>
<path d="M21.5423 9.74951C21.2223 9.74951 20.9652 10.0092 20.9652 10.3266C20.9652 10.6439 21.2249 10.9036 21.5423 10.9036C21.8597 10.9036 22.1193 10.6439 22.1193 10.3266C22.1193 10.0092 21.8597 9.74951 21.5423 9.74951Z" fill="#7B5E49"/>
</g>
<defs>
<clipPath id="clip0_172_57">
<rect width="24" height="24" fill="white"/>
</clipPath>
</defs>
</svg>
