<svg width="21" height="24" viewBox="0 0 21 24" fill="none" xmlns="http://www.w3.org/2000/svg">
<g clip-path="url(#clip0_172_32)">
<path d="M20.4295 19.3155L19.0511 18.8329L17.9525 14.3384C20.0676 13.4348 21.1174 10.3367 20.3448 7.1743C20.0111 5.81131 19.3925 4.59206 18.5532 3.64489L18.4762 3.55762L11.4866 5.26457L11.4584 5.37751C11.1504 6.60446 11.1632 7.97259 11.4943 9.33559C12.267 12.4979 14.6285 14.767 16.9181 14.5899L18.0167 19.0845L17.0156 20.1471C16.8719 20.3011 16.8436 20.527 16.9514 20.7118C17.0387 20.8607 17.1927 20.948 17.3596 20.948C17.3981 20.948 17.4366 20.9429 17.4751 20.9352L20.3885 20.2241C20.5938 20.1728 20.7401 19.9983 20.7504 19.7878C20.7606 19.5773 20.6323 19.3874 20.4347 19.318L20.4295 19.3155ZM20.2935 19.8494L17.3801 20.5604C17.3236 20.5732 17.2954 20.5399 17.2826 20.5193C17.2697 20.4988 17.2543 20.4552 17.2954 20.4141L18.4377 19.1974L17.2107 14.169L17.0387 14.1921C14.8851 14.4744 12.6109 12.3003 11.8665 9.24575C11.5585 7.98542 11.538 6.72254 11.8024 5.58542L18.3401 3.98885C19.0999 4.87698 19.662 6.00639 19.9701 7.26671C20.717 10.3213 19.7005 13.2962 17.6599 14.0406L17.4982 14.0997L18.7277 19.1281L20.3037 19.68C20.3576 19.6979 20.3654 19.7441 20.3628 19.7672C20.3602 19.7903 20.3525 19.8365 20.296 19.8494H20.2935Z" fill="#7B5E49"/>
<path d="M19.5465 8.18064L12.249 8.01123C12.2875 8.37316 12.3491 8.73765 12.4389 9.10471C13.114 11.8718 15.1008 13.8482 16.9617 13.607C17.0593 13.5941 17.1414 13.5787 17.2133 13.5633C17.2851 13.5453 17.3647 13.5197 17.4571 13.4863C19.0537 12.9036 19.9033 10.6551 19.5465 8.18064Z" fill="#7B5E49"/>
<path d="M9.52043 8.42428L2.56171 6.59155L2.48214 6.67626C1.62481 7.60802 0.983102 8.81701 0.62631 10.1723C-0.202781 13.3218 0.790588 16.438 2.8877 17.3774L1.70952 21.8514L0.323422 22.3109C0.123209 22.3776 -0.00770054 22.565 -0.00256685 22.7755C0.00513369 22.986 0.14631 23.1657 0.351658 23.2196L3.24963 23.9819C3.2907 23.9922 3.33177 23.9973 3.37283 23.9973C3.53455 23.9973 3.68856 23.9126 3.77583 23.7689C3.8862 23.5866 3.8631 23.3608 3.72193 23.2042L2.74139 22.1235L3.91957 17.6495C6.20663 17.8626 8.6092 15.6397 9.43829 12.4927C9.79508 11.1374 9.83358 9.76931 9.5461 8.53722L9.52043 8.42428ZM9.0661 12.3952C8.26524 15.4343 5.95251 17.5674 3.80406 17.2491L3.63465 17.2234L2.31529 22.2288L3.43701 23.466C3.47551 23.5096 3.46011 23.5507 3.44727 23.5712C3.43444 23.5918 3.4062 23.6251 3.34973 23.6097L0.451765 22.8474C0.395294 22.832 0.387594 22.7883 0.385027 22.7652C0.385027 22.7396 0.39016 22.6959 0.446631 22.678L2.03037 22.1543L3.34973 17.149L3.18802 17.0874C1.16021 16.3071 0.200214 13.3141 1.00107 10.2724C1.33219 9.01722 1.91487 7.89808 2.69005 7.02535L9.19701 8.74C9.44086 9.88225 9.39722 11.1451 9.0661 12.3978V12.3952Z" fill="#7B5E49"/>
<path d="M3.40107 16.5357C3.49348 16.5717 3.57048 16.5973 3.64235 16.6153C3.71422 16.6333 3.79636 16.6512 3.8939 16.6641C5.74973 16.9387 7.77241 14.9982 8.49882 12.244C8.63487 11.7255 8.71957 11.207 8.75038 10.6987L1.30652 12.5854C1.34503 14.472 2.12021 16.0403 3.40107 16.5357Z" fill="#7B5E49"/>
<path d="M11.8563 2.62333L12.136 1.86611L12.8933 1.58632L12.136 1.30654L11.8563 0.549316L11.5765 1.30654L10.8193 1.58632L11.5765 1.86611L11.8563 2.62333Z" fill="#7B5E49"/>
<path d="M12.693 2.32558C12.6263 2.40772 12.6366 2.52836 12.7187 2.59766C12.9882 2.82098 13.2116 3.10077 13.363 3.41135C13.3964 3.48066 13.4657 3.51916 13.535 3.51916C13.5632 3.51916 13.5914 3.51403 13.6197 3.49863C13.7147 3.45242 13.7557 3.33692 13.7095 3.24194C13.535 2.88258 13.2757 2.55659 12.9626 2.29991C12.8804 2.23317 12.7598 2.24344 12.6905 2.32558H12.693Z" fill="#7B5E49"/>
<path d="M15.0905 3.5062C15.1084 3.5062 15.129 3.50363 15.147 3.4985C15.2496 3.4677 15.3061 3.35989 15.2753 3.25721C15.0109 2.38449 15.1316 1.39625 15.6013 0.613365C15.6552 0.520958 15.627 0.402883 15.5345 0.34898C15.4447 0.295076 15.3241 0.323311 15.2702 0.415718C14.7465 1.29101 14.6105 2.39475 14.9082 3.36759C14.9339 3.44973 15.0109 3.50363 15.093 3.50363L15.0905 3.5062Z" fill="#7B5E49"/>
<path d="M5.73947 6.57626C5.75743 6.58139 5.7754 6.58396 5.79337 6.58396C5.87551 6.58396 5.95251 6.53005 5.97818 6.44535C6.28877 5.40578 6.31701 4.29947 6.06289 3.24449C6.03722 3.14182 5.93455 3.07765 5.8293 3.10332C5.72663 3.12898 5.66246 3.23166 5.68813 3.3369C5.92685 4.32513 5.90118 5.36214 5.60856 6.33754C5.57775 6.44021 5.63679 6.54802 5.7369 6.57626H5.73947Z" fill="#7B5E49"/>
<path d="M7.36171 6.98429C7.43102 6.98429 7.50032 6.94579 7.53369 6.87905C7.79808 6.35798 8.1754 5.88568 8.62203 5.50835C8.70417 5.43905 8.71444 5.31841 8.64513 5.23627C8.57583 5.15413 8.45519 5.14386 8.37305 5.21316C7.88791 5.62129 7.47979 6.13723 7.18973 6.7045C7.14096 6.79948 7.17947 6.91498 7.27444 6.96375C7.30267 6.97659 7.33091 6.98429 7.36171 6.98429Z" fill="#7B5E49"/>
<path d="M9.04556 0L7.79294 1.3861L5.92428 1.33733L7.31038 2.58995L7.26161 4.45861L8.51423 3.07251L10.3829 3.12128L8.99679 1.86866L9.04556 0ZM9.35615 2.70802L8.35251 2.68235L7.68 3.4293L7.70567 2.42567L6.95872 1.75315L7.96235 1.77882L8.63487 1.03187L8.6092 2.03551L9.35615 2.70802Z" fill="#7B5E49"/>
</g>
<defs>
<clipPath id="clip0_172_32">
<rect width="20.7452" height="24" fill="white"/>
</clipPath>
</defs>
</svg>
