<svg width="24" height="24" viewBox="0 0 24 24" fill="none" xmlns="http://www.w3.org/2000/svg">
<g clip-path="url(#clip0_172_44)">
<path d="M16.5902 9.18033C15.8216 9.18033 15.0793 9.29836 14.379 9.51606C13.5292 7.16852 11.5252 5.36918 9.05705 4.80525L11.4597 2.25311L9.38754 0H5.43213L3.36 2.25574L5.76262 4.80787C2.4682 5.55803 0 8.51148 0 12.0289C0 16.1154 3.32328 19.4387 7.40984 19.4387C8.17836 19.4387 8.92066 19.3207 9.62098 19.103C10.6518 21.9567 13.3875 24 16.5902 24C20.6767 24 24 20.6767 24 16.5902C24 12.5036 20.6767 9.18033 16.5902 9.18033ZM8.60066 4.71607C8.47475 4.69508 8.35147 4.67934 8.22295 4.66361L9.05705 2.44721H10.7331L8.59803 4.71344L8.60066 4.71607ZM6.17967 2.05639L6.79082 0.393443H8.02885L8.64 2.05639H6.17705H6.17967ZM8.64 2.44984L7.81639 4.63213C7.68262 4.62426 7.54623 4.62164 7.40984 4.62164C7.27344 4.62164 7.13705 4.62688 7.00328 4.63213L6.18229 2.44984H8.64ZM9.21443 0.393443L10.7436 2.05639H9.05967L8.44852 0.393443H9.21443ZM5.60525 0.393443H6.37115L5.76 2.05639H4.07607L5.60525 0.393443ZM4.08393 2.44984H5.76L6.5941 4.66623C6.4682 4.67934 6.34229 4.6977 6.21639 4.71869L4.08131 2.45246L4.08393 2.44984ZM7.40984 19.0452C3.54098 19.0452 0.393443 15.8977 0.393443 12.0289C0.393443 8.61639 2.84328 5.76525 6.07738 5.14098C6.23213 5.11213 6.38951 5.0859 6.54951 5.06754C6.61246 5.05967 6.67541 5.0518 6.73836 5.04656C6.87475 5.03344 7.01115 5.02557 7.15016 5.02033C7.23672 5.0177 7.32328 5.01246 7.40984 5.01246C7.49639 5.01246 7.58295 5.01508 7.66951 5.02033C7.80852 5.02557 7.94492 5.03344 8.08131 5.04656C8.14426 5.0518 8.20721 5.05967 8.27016 5.06754C8.42754 5.0859 8.58492 5.11213 8.7423 5.14098C11.1843 5.61311 13.1777 7.35213 14.0092 9.64459C14.0538 9.76787 14.0931 9.89377 14.1325 10.0197C14.1928 10.2216 14.2452 10.4289 14.2872 10.6387C14.3134 10.7698 14.3344 10.901 14.3554 11.0348C14.4026 11.36 14.4262 11.6905 14.4262 12.0289C14.4262 14.6649 12.9652 16.9626 10.8118 18.1613C10.7541 17.9489 10.7069 17.7311 10.6728 17.5108C12.5403 16.3961 13.7941 14.3554 13.7941 12.0289C13.7941 11.7875 13.7784 11.5515 13.7521 11.3154C13.7364 11.1764 13.7154 11.04 13.6918 10.9036C13.6525 10.6885 13.6026 10.4761 13.5449 10.2662C13.5082 10.1377 13.4689 10.0118 13.4243 9.88852C12.6295 7.66164 10.6308 6.00131 8.2177 5.69443C8.09705 5.67869 7.97377 5.6682 7.85049 5.6577C7.8059 5.65508 7.76393 5.64984 7.71934 5.64984C7.62492 5.64459 7.53049 5.64197 7.43607 5.64197C7.4282 5.64197 7.42033 5.64197 7.41246 5.64197C7.40459 5.64197 7.39672 5.64197 7.38885 5.64197C7.29443 5.64197 7.2 5.64459 7.10557 5.64984C7.06098 5.64984 7.01902 5.65508 6.97443 5.6577C6.85115 5.66557 6.72787 5.67869 6.60721 5.69443C3.46754 6.09311 1.03082 8.77902 1.03082 12.0236C1.03082 15.5436 3.89508 18.4052 7.41246 18.4052C8.08393 18.4052 8.7318 18.3003 9.34033 18.1062C9.38492 18.3134 9.43738 18.5207 9.4977 18.7226C8.83934 18.9272 8.13639 19.04 7.40984 19.04V19.0452ZM14.7331 10.8984C15.318 10.7069 15.9423 10.602 16.5902 10.602C19.8925 10.602 22.5784 13.2879 22.5784 16.5902C22.5784 19.8925 19.8925 22.5784 16.5902 22.5784C13.9725 22.5784 11.7456 20.8918 10.9325 18.5469C13.2459 17.2931 14.8197 14.8407 14.8197 12.0289C14.8197 11.6433 14.7908 11.2656 14.7331 10.8957V10.8984ZM10.602 16.5902C10.602 14.4682 11.7115 12.6033 13.377 11.5384C13.3902 11.701 13.398 11.8636 13.398 12.0289C13.398 14.1508 12.2885 16.0157 10.623 17.0807C10.6098 16.918 10.602 16.7554 10.602 16.5902ZM9.26688 17.7233C8.68197 17.9148 8.0577 18.0197 7.40984 18.0197C4.10754 18.0197 1.42164 15.3338 1.42164 12.0315C1.42164 8.72918 3.85836 6.30033 6.94557 6.06164C7.00328 6.05639 7.06098 6.05115 7.11869 6.04852C7.21574 6.04328 7.31279 6.04066 7.41246 6.04066C7.51213 6.04066 7.60918 6.04328 7.70623 6.04852C7.76393 6.05115 7.82164 6.05639 7.87934 6.06164C10.2925 6.24787 12.3069 7.86885 13.0728 10.0721C10.7593 11.3259 9.18557 13.7784 9.18557 16.5902C9.18557 16.9757 9.21443 17.3534 9.27213 17.7233H9.26688ZM16.5902 23.6066C13.558 23.6066 10.9692 21.6734 9.99082 18.9744C9.94623 18.8511 9.90688 18.7252 9.86754 18.5993C9.80721 18.3974 9.75475 18.1902 9.71279 17.9803C9.68656 17.8492 9.66557 17.718 9.64459 17.5843C9.59738 17.259 9.57377 16.9285 9.57377 16.5902C9.57377 13.9541 11.0348 11.6564 13.1882 10.4577C13.2459 10.6702 13.2931 10.8879 13.3272 11.1082C11.4597 12.2229 10.2059 14.2636 10.2059 16.5902C10.2059 16.8315 10.2216 17.0675 10.2479 17.3036C10.2636 17.4426 10.2846 17.579 10.3082 17.7154C10.3475 17.9305 10.3948 18.143 10.4551 18.3528C10.4918 18.4813 10.5311 18.6072 10.5757 18.7305C11.457 21.2013 13.8203 22.977 16.5902 22.977C20.1102 22.977 22.9718 20.1128 22.9718 16.5954C22.9718 13.078 20.1075 10.2138 16.5902 10.2138C15.9187 10.2138 15.2708 10.3187 14.6623 10.5128C14.6177 10.303 14.5652 10.0984 14.5049 9.89639C15.1633 9.6918 15.8662 9.57902 16.5928 9.57902C20.4616 9.57902 23.6092 12.7266 23.6092 16.5954C23.6092 20.4643 20.4616 23.6118 16.5928 23.6118L16.5902 23.6066Z" fill="#7B5E49"/>
<path d="M15.5803 7.41235C15.5515 7.51727 15.6118 7.62481 15.7167 7.65629C15.8216 7.68514 15.9292 7.62481 15.9607 7.51989C16.0761 7.11596 16.438 6.7776 16.8787 6.63333C16.8525 7.00842 17.0098 7.39924 17.2984 7.65104C17.4505 7.78481 17.6184 7.86088 17.7836 7.87137C17.7967 7.87137 17.8098 7.87137 17.8229 7.87137C18.1718 7.87137 18.4839 7.57497 18.518 7.20514C18.5469 6.88251 18.3711 6.5494 18.0669 6.35792C17.8964 6.25038 17.6918 6.18743 17.4636 6.16907C17.5738 6.01956 17.7102 5.90678 17.8046 5.83858C18.1508 5.58678 18.5757 5.44776 19.0033 5.44251C19.1108 5.44251 19.2 5.35071 19.1974 5.24317C19.1948 5.13563 19.0977 5.0517 18.998 5.04907C18.4918 5.05432 17.9856 5.22219 17.5738 5.5212C17.3062 5.7153 17.1095 5.94874 16.9915 6.19792C16.32 6.32383 15.7534 6.8012 15.5803 7.40973V7.41235ZM17.2774 6.58612C17.2774 6.58612 17.28 6.57038 17.2826 6.56252C17.4531 6.55727 17.6734 6.57825 17.8544 6.69366C18.0302 6.80645 18.1377 6.99792 18.122 7.17366C18.1062 7.34153 17.9515 7.49104 17.8046 7.48055C17.7075 7.47268 17.6131 7.40973 17.5528 7.35727C17.3377 7.16842 17.2275 6.86415 17.2748 6.58612H17.2774Z" fill="#7B5E49"/>
<path d="M15.1685 5.77575C15.1685 5.77575 15.1895 5.77838 15.2 5.77838C15.2944 5.77838 15.3784 5.71018 15.3941 5.61313C15.5043 4.95215 15.9134 4.35411 16.4905 4.01313C16.5849 3.95805 16.6138 3.83739 16.5587 3.74297C16.5036 3.64854 16.3829 3.61969 16.2885 3.67477C15.6144 4.07346 15.1318 4.77379 15.0033 5.54756C14.9849 5.6551 15.0584 5.75477 15.1659 5.77313L15.1685 5.77575Z" fill="#7B5E49"/>
</g>
<defs>
<clipPath id="clip0_172_44">
<rect width="24" height="24" fill="white"/>
</clipPath>
</defs>
</svg>
